<?xml version="1.0" encoding="utf-8"?>
<!-- Generator: Adobe Illustrator 26.5.0, SVG Export Plug-In . SVG Version: 6.00 Build 0)  -->
<svg version="1.1" id="Layer_1" xmlns="http://www.w3.org/2000/svg" xmlns:xlink="http://www.w3.org/1999/xlink" x="0px" y="0px"
	 viewBox="0 0 94.4 94.4" style="enable-background:new 0 0 94.4 94.4;" xml:space="preserve">
<style type="text/css">
	.st0{fill:#FFD400;}
	.st1{clip-path:url(#SVGID_00000155824749169021364190000004598179227607884436_);fill:#231F20;}
	.st2{clip-path:url(#SVGID_00000155824749169021364190000004598179227607884436_);fill:#FFFFFF;}
	.st3{fill:#ED1A3B;}
	.st4{fill:#FFFFFF;}
	.st5{fill:#231F20;}
</style>
<g>
	<polygon class="st0" points="39.8,1.6 40.7,0.4 42.3,0.3 43.4,1.2 51,1.2 52.1,0.3 53.6,0.4 54.5,1.6 61.9,3.4 63.2,2.8 64.6,3.3
		65.2,4.7 71.9,8.2 73.4,7.9 74.6,8.8 74.9,10.2 80.6,15.2 82,15.3 83,16.5 82.9,17.9 87.2,24.1 88.6,24.6 89.3,25.9 88.9,27.3
		91.6,34.4 92.8,35.2 93.2,36.6 92.4,37.9 93.3,45.4 94.4,46.4 94.4,48 93.3,49 92.4,56.5 93.2,57.7 92.8,59.2 91.6,60 88.9,67.1
		89.3,68.4 88.6,69.8 87.2,70.2 82.9,76.5 83,77.9 82,79.1 80.6,79.1 74.9,84.2 74.6,85.6 73.4,86.5 71.9,86.2 65.2,89.7 64.6,91
		63.2,91.6 61.9,91 54.5,92.8 53.6,93.9 52.1,94.1 51,93.2 43.4,93.2 42.3,94.1 40.7,93.9 39.9,92.8 32.5,91 31.2,91.6 29.7,91
		29.1,89.7 22.5,86.2 21,86.5 19.8,85.6 19.5,84.2 13.8,79.1 12.4,79.1 11.4,77.9 11.5,76.5 7.2,70.2 5.8,69.8 5.1,68.5 5.5,67.1
		2.8,60 1.6,59.2 1.2,57.7 1.9,56.5 1,49 0,48 0,46.4 1,45.4 1.9,37.9 1.2,36.6 1.6,35.2 2.8,34.4 5.5,27.3 5.1,25.9 5.8,24.6
		7.2,24.2 11.5,17.9 11.4,16.5 12.4,15.3 13.8,15.2 19.5,10.2 19.8,8.8 21,7.9 22.4,8.2 29.1,4.7 29.7,3.3 31.2,2.8 32.5,3.4 	"/>
	<g>
		<defs>
			<path id="SVGID_1_" d="M47.2,94.4c26.1,0,47.2-21.1,47.2-47.2C94.4,21.1,73.3,0,47.2,0C21.1,0,0,21.1,0,47.2
				C0,73.3,21.1,94.4,47.2,94.4z"/>
		</defs>
		<clipPath id="SVGID_00000090286236906447383690000005546907967758923143_">
			<use xlink:href="#SVGID_1_"  style="overflow:visible;"/>
		</clipPath>
		<path style="clip-path:url(#SVGID_00000090286236906447383690000005546907967758923143_);fill:#231F20;" d="M52.2-0.1l-5,28.4
			l-5-28.4 M53.7,0l-2,28.8L63.4,2.4 M64.8,3L56,30.5L73.6,7.6 M74.8,8.5L59.7,33.1l22.6-18 M83.3,16.2L62.7,36.5l26.3-12
			 M89.7,25.7L64.8,40.5l28.4-5.4 M93.6,36.5l-27.6,8.4l28.8,1.5 M94.8,47.9l-28.8,1.5l27.6,8.4 M93.2,59.3l-28.4-5.4l24.8,14.8
			 M89,70l-26.3-12l20.6,20.3 M82.3,79.3l-22.6-18l15.1,24.6 M73.6,86.8L56,63.9l8.8,27.5 M52.2,94.5l-5-28.4l-5,28.4 M40.7,94.3
			l2-28.8L31,91.9 M29.6,91.4l8.8-27.5L20.8,86.8 M19.6,85.9l15.1-24.6l-22.6,18 M11.1,78.2l20.6-20.3L5.4,70 M4.7,68.7l24.8-14.8
			L1.2,59.3 M0.8,57.9l27.6-8.4l-28.8-1.5 M-0.4,46.5l28.8-1.5L0.8,36.5 M1.2,35.1l28.4,5.4L4.7,25.7 M5.4,24.4l26.3,12L11.1,16.2
			 M12.1,15.1l22.6,18L19.6,8.5 M20.8,7.6l17.7,22.9L29.6,3 M31,2.4l11.7,26.4L40.7,0 M63.4,91.9L51.7,65.5l2,28.8"/>
		<path style="clip-path:url(#SVGID_00000090286236906447383690000005546907967758923143_);fill:#FFFFFF;" d="M78.4,11.5l-3.6,4.1
			c0.7,0.6,1.4,1.3,2.1,2l-1.1,1.1c-1-1.1-2.1-2-3.3-3l4.4-5.4 M91.2,29.5l-6.5,2.6c0.2,0.5,0.4,1,0.6,1.5l6.6-2.3 M94.5,43.3
			l-5.4-1.1l0,0l5-2.3l-0.3-1.8l-6.5,3.4c0.1,0.6,0.2,1.3,0.2,1.9l7.1,1.7 M92.4,61.5l-1.7-0.5c-0.2,0.5-0.4,1.1-0.5,1.6l-4.9-1.8
			c-0.2,0.5-0.4,1-0.6,1.5l4.8,2c-0.2,0.5-0.4,1.1-0.7,1.6l1.6,0.7 M86.8,73.4L81,69.5c-0.3,0.4-0.6,0.9-0.9,1.3l5.6,4.1 M80.6,80.9
			l-1.2-1.2c-0.4,0.4-0.8,0.8-1.2,1.2L74.6,77c-0.4,0.4-0.8,0.7-1.2,1.1l3.4,4c-0.4,0.4-0.9,0.7-1.3,1.1l1.1,1.4 M70.1,88.8
			l-3.4-6.1c-0.5,0.3-1,0.5-1.4,0.8l3.1,6.3 M55.1,94l-0.3-1.7c0.9-0.2,1.8-0.3,2.8-0.6l-0.3-1.1c-0.9,0.2-1.7,0.4-2.5,0.5l-0.2-1.3
			c0.8-0.1,1.5-0.3,2.4-0.5l-0.3-1.2c-0.9,0.2-1.8,0.4-2.6,0.5l-0.2-1.5c1.4-0.2,2.7-0.5,4.1-0.9l0.5,1.8c0.7-0.2,1.4-0.4,2.2-0.7
			L61,86l1,2.4l-1.4,4.4 M59.6,91.6l0.7-2.8c-0.5,0.2-1,0.3-1.5,0.4L59.6,91.6L59.6,91.6z M36.8,93.5l1.5-6.8
			c-0.5-0.1-1.1-0.2-1.6-0.4L35,93 M27.1,90.2l3-6.3c-1.3-0.6-2.6-1.3-3.9-2.1l-0.8,1.3c0.8,0.5,1.7,1,2.6,1.4l-2.5,4.9 M17.4,84.1
			l4.4-5.4c-1.2-0.9-2.3-1.9-3.3-3l-1.1,1.1c0.7,0.7,1.4,1.4,2.1,2L16,82.9 M7.2,72.7l5.3-1.5l0,0l-3.3,4.3l1.1,1.5l4.2-6
			c-0.4-0.5-0.7-1-1.1-1.6l-7.1,1.8 M0.5,55.6l1.7-0.3c-0.1-0.6-0.2-1.1-0.3-1.7l5.2-0.7C7,52.4,7,51.8,6.9,51.3l-5.2,0.5
			c-0.1-0.6-0.1-1.2-0.1-1.7l-1.7,0.1 M-0.2,44.3l7,0.4c0-0.5,0.1-1.1,0.1-1.6l-2.6-0.3c0-0.1,0-0.2,0-0.3c0.1-0.5,0.7-0.8,1.3-1
			c0.5-0.2,1.6-0.5,1.6-0.5c0.1-0.6,0.2-1.2,0.3-1.8c0,0-1.8,0.6-2.5,1c-0.4,0.2-0.7,0.4-0.9,0.7l0,0c0-1.1-0.7-1.8-1.7-1.8
			c-1.2-0.1-1.9,1-2,2.4l-0.3,0 M2.5,40.9C3.2,41,3.2,41.6,3.2,42c0,0.2-0.1,0.5-0.1,0.8l-1.7-0.2c0-0.3,0-0.5,0.1-0.8
			C1.6,41.1,1.9,40.8,2.5,40.9z M2.5,31.2l5.7,5c0.2-0.6,0.3-1.2,0.5-1.7l-1.2-1c0.3-0.7,0.5-1.5,0.8-2.2l1.6,0.1
			c0.2-0.6,0.5-1.1,0.8-1.7l-7.5-0.2 M4.3,30.9L7,31.1c-0.2,0.5-0.4,1-0.6,1.5L4.3,30.9L4.3,30.9z M13.3,14l5,4.9
			c0.3-0.4,0.7-0.7,1-1l-3.1-3.2l4.9,1.6c0.5-0.4,0.9-0.8,1.4-1.1l-4.2-5.6l-1.4,1.1l2.9,3.6l-5.1-1.7 M54.6,7.2
			c0.6,0.4,1.3,0.7,2,0.9c1.5,0.4,2.9,0.1,3.3-1.6c0.2-0.9-0.1-1.7-1.7-2.5c-0.7-0.3-0.9-0.6-0.8-0.9c0.1-0.4,0.5-0.6,1.3-0.4
			c0.3,0.1,0.9,0.3,1.3,0.6l0.8-1.1c-0.6-0.4-1.3-0.8-2-0.9c-1.2-0.3-2.8,0-3.2,1.4C55.3,4,56,4.6,56.7,5c0.7,0.4,1.5,0.7,1.3,1.3
			c-0.2,0.6-0.7,0.6-1.3,0.5c-0.5-0.1-1.1-0.4-1.4-0.7L54.6,7.2z M64.3,6.7c-0.9,1.7-0.5,3.8,1.6,4.9c2,1.1,4,0.3,4.9-1.5
			c0.9-1.7,0.5-3.8-1.6-4.9C67.2,4.2,65.2,5,64.3,6.7z M65.9,7.5c0.7-1.3,1.7-1.5,2.6-1.1c0.9,0.5,1.3,1.5,0.6,2.8
			c-0.7,1.3-1.7,1.5-2.6,1.1C65.6,9.9,65.2,8.9,65.9,7.5z M87.8,49.7c-0.3,0.6-0.5,1.3-0.6,2c-0.2,1.5,0.3,2.9,2,3.1
			c0.9,0.1,1.7-0.3,2.3-1.9c0.3-0.8,0.5-0.9,0.8-0.9c0.4,0,0.7,0.4,0.6,1.2c0,0.4-0.2,1-0.5,1.4l1.2,0.6c0.3-0.7,0.6-1.3,0.7-2.1
			c0.2-1.3-0.3-2.8-1.8-3c-1.3-0.2-1.8,0.6-2.1,1.3c-0.3,0.8-0.5,1.5-1.1,1.5c-0.6-0.1-0.7-0.7-0.6-1.2c0.1-0.5,0.3-1.1,0.5-1.5
			L87.8,49.7z M10.1,63.8c0-0.7-0.1-1.4-0.4-2.1c-0.5-1.4-1.6-2.4-3.2-1.8c-0.9,0.3-1.4,1-1.1,2.8c0.1,0.8,0,1.1-0.3,1.2
			c-0.4,0.2-0.8,0-1.1-0.8c-0.1-0.3-0.2-1-0.2-1.4l-1.3,0c0,0.7,0.1,1.5,0.4,2.2c0.5,1.2,1.6,2.3,3,1.8C7,65.1,7.1,64.2,7,63.3
			c-0.1-0.8-0.3-1.6,0.3-1.8c0.6-0.2,0.9,0.3,1.1,0.8c0.2,0.4,0.3,1.1,0.3,1.6L10.1,63.8z M23.6,10.1c0.9,1.7,2.9,2.5,4.9,1.5
			c2-1.1,2.5-3.1,1.6-4.9c-0.9-1.7-2.9-2.5-4.9-1.5C23.1,6.3,22.7,8.4,23.6,10.1z M25.2,9.3c-0.7-1.3-0.3-2.3,0.6-2.8
			c0.9-0.5,1.9-0.2,2.6,1.1c0.7,1.3,0.3,2.3-0.6,2.8C26.9,10.8,25.9,10.6,25.2,9.3z M35.2,8.4c0.7,0.1,1.4,0,2.1-0.1
			c1.5-0.4,2.6-1.3,2.2-2.9c-0.2-0.9-0.9-1.5-2.6-1.4c-0.8,0-1-0.2-1.1-0.4c-0.1-0.4,0.1-0.8,0.9-1c0.3-0.1,1-0.1,1.5-0.1l0.2-1.3
			C37.6,1,36.9,1,36.1,1.1c-1.2,0.3-2.5,1.3-2.1,2.7c0.3,1.3,1.2,1.5,2,1.5c0.8,0,1.6-0.1,1.8,0.5c0.2,0.6-0.4,0.9-0.9,1
			C36.4,7,35.7,7,35.3,7L35.2,8.4z M47.2,5.1c0.9,0,1.7-0.8,1.7-1.7c0-0.9-0.8-1.7-1.7-1.7c-0.9,0-1.7,0.8-1.7,1.7
			C45.5,4.4,46.2,5.1,47.2,5.1z M81.8,23.3c0.5,0.8,1.6,1,2.4,0.4c0.8-0.5,1-1.6,0.4-2.4c-0.5-0.8-1.6-1-2.4-0.4
			C81.5,21.5,81.3,22.5,81.8,23.3z M45.5,91c0,0.9,0.8,1.7,1.7,1.7c0.9,0,1.7-0.8,1.7-1.7c0-0.9-0.8-1.7-1.7-1.7
			C46.2,89.3,45.5,90,45.5,91z M12.6,23.3c0.5-0.8,0.3-1.8-0.4-2.4c-0.8-0.5-1.8-0.3-2.4,0.4c-0.5,0.8-0.3,1.8,0.4,2.4
			C11,24.3,12,24.1,12.6,23.3z"/>
	</g>
	<g>
		<path class="st3" d="M53.7,53.7c-0.5,0.5-1.3,0.9-2.1,0.9h-1.7c-1,0-1.8,0.5-2.3,1.2h-0.6c-0.5-0.7-1.4-1.2-2.3-1.2h-1.7
			c-1.6,0-2.9-1.3-2.9-2.9V39.9"/>
		<path class="st4" d="M39.9,39.9h14.6v11.7c0,0.8-0.3,1.5-0.8,2"/>
		<path class="st5" d="M55.3,51.6c0,2-1.7,3.7-3.7,3.7h-1.7c-0.9,0-1.7,0.6-2,1.3h-1.3c-0.3-0.8-1.1-1.3-2-1.3h-1.7
			c-2,0-3.7-1.6-3.7-3.7V39.1h16.1V51.6z M53.8,40.6H40.6v10.9c0,1.2,1,2.2,2.2,2.2h1.7c1,0,2,0.4,2.6,1.1h0
			c0.7-0.7,1.6-1.1,2.6-1.1h1.7c1.2,0,2.2-1,2.2-2.2V40.6z"/>
	</g>
</g>
</svg>
