<?xml version="1.0" encoding="utf-8"?>
<!-- Generator: Adobe Illustrator 16.0.0, SVG Export Plug-In . SVG Version: 6.00 Build 0)  -->
<!DOCTYPE svg PUBLIC "-//W3C//DTD SVG 1.1//EN" "http://www.w3.org/Graphics/SVG/1.1/DTD/svg11.dtd">
<svg version="1.1" id="Layer_1" xmlns="http://www.w3.org/2000/svg" xmlns:xlink="http://www.w3.org/1999/xlink" x="0px" y="0px"
	 width="225.268px" height="54.021px" viewBox="0 0 225.268 54.021" enable-background="new 0 0 225.268 54.021"
	 xml:space="preserve">
<g>
	<path d="M71.188,20.805h4.871v0.733h-0.133c-1.502,0-1.73,0.659-1.73,1.563v4.683c0,4.193-3.045,4.98-5.283,4.98
		c-3.387,0-5.53-1.464-5.53-4.342v-5.605c0-0.939-0.261-1.279-1.316-1.279h-0.32v-0.733h5.889v0.733h-0.32
		c-0.791,0-1.338,0.358-1.338,1.279v5.605c0,2.295,1.695,3.082,3.404,3.082c2.467,0,3.689-1.391,3.689-3.461v-4.567
		c0-1.334-0.379-1.938-1.545-1.938h-0.338V20.805z"/>
	<path d="M84.898,30.792c0,0.92,0.335,1.106,1.072,1.106v0.604h-4.44v-0.604c0.771-0.054,1.073-0.581,1.073-2.125v-1.635
		c0-1.505-0.415-2.088-1.165-2.088c-0.584,0-1.205,0.282-1.996,0.828v3.818c0,0.846,0.359,1.201,1.109,1.201h0.169v0.604h-4.757
		v-0.604h0.112c0.792,0,1.072-0.337,1.072-1.314v-3.667c0-0.414-0.225-0.658-0.885-0.846l-0.391-0.113v-0.452l3.214-1.089h0.357
		v1.671c1.371-0.901,2.576-1.467,3.479-1.467c1.375,0,1.977,0.981,1.977,3.233V30.792z"/>
	<path d="M91.913,32.503h-4.7v-0.604h0.207c0.771,0,1.051-0.338,1.051-1.315v-3.608c0-0.491-0.113-0.624-0.639-0.811l-0.619-0.227
		v-0.45l3.214-1.071h0.342v6.3c0,0.771,0.315,1.183,1.144,1.183V32.503z M91.03,21.426c0,0.753-0.717,1.279-1.485,1.279
		c-0.868,0-1.504-0.547-1.504-1.279c0-0.677,0.714-1.279,1.504-1.279C90.405,20.146,91.03,20.712,91.03,21.426"/>
	<path d="M92.121,24.83h4.776v0.603H96.24c-0.398,0-0.562,0.355-0.244,1.051l1.671,3.745l1.466-3.312
		c0.433-0.98,0.21-1.355-1.107-1.484V24.83h3.741v0.603c-0.979,0.092-1.221,0.337-1.58,1.125l-2.686,6.075h-1.129l-2.802-6.035
		c-0.355-0.772-0.624-1.074-1.449-1.166V24.83z"/>
	<path d="M109.347,30.322c-1.055,1.482-2.576,2.387-4.023,2.387c-2.054,0-3.441-1.581-3.441-3.854c0-2.484,1.672-4.235,4.022-4.235
		c0.999,0,1.784,0.321,2.368,0.904c1.114,1.109,0.584,2.163,1.243,2.504v0.542h-5.21c0.151,1.562,1.203,2.745,2.312,2.745
		c0.696,0,1.372-0.392,2.295-1.354L109.347,30.322z M106.921,27.838c-0.017-1.446-0.526-2.332-1.336-2.332
		c-0.771,0-1.467,0.997-1.335,2.332H106.921z"/>
	<path d="M115.74,32.503h-5.225v-0.604h0.131c0.77,0,1.05-0.337,1.05-1.314v-3.066c0-0.846-0.112-1.033-0.677-1.259l-0.504-0.208
		V25.58l3.08-1.163h0.398v2.104h0.04c0.692-1.353,0.992-1.899,1.633-1.899c0.134,0,0.283,0.021,0.375,0.058l1.484,0.547
		c-0.223,0.788-0.523,1.465-0.898,1.991c-0.585-0.225-1.281-0.468-1.526-0.468c-0.375,0-0.695,0.261-1.107,0.846v3.044
		c0,0.904,0.282,1.26,1.261,1.26h0.486V32.503z"/>
	<path d="M118.715,30.283h0.602c0.32,1.054,1.148,1.616,1.955,1.616c0.527,0,0.974-0.396,0.974-0.863c0-1.298-3.53-1.748-3.53-4.026
		c0-1.43,1.186-2.389,2.947-2.389c0.717,0,1.321,0.113,2.11,0.396l0.036,2.012h-0.605c-0.337-1.034-0.958-1.597-1.765-1.597
		c-0.489,0-0.864,0.301-0.864,0.713c0,1.542,3.704,1.6,3.704,4.177c0,1.39-0.996,2.368-2.444,2.368c-1.301,0-1.73-0.265-1.994-0.265
		c-0.111,0-0.224,0.077-0.375,0.245h-0.546L118.715,30.283z"/>
	<path d="M130.526,32.503h-4.704v-0.604h0.21c0.768,0,1.051-0.338,1.051-1.315v-3.608c0-0.491-0.107-0.624-0.637-0.811l-0.624-0.227
		v-0.45l3.216-1.071h0.338v6.3c0,0.771,0.321,1.183,1.15,1.183V32.503z M129.641,21.426c0,0.753-0.714,1.279-1.486,1.279
		c-0.864,0-1.503-0.547-1.503-1.279c0-0.677,0.714-1.279,1.503-1.279C129.02,20.146,129.641,20.712,129.641,21.426"/>
	<path d="M134.78,30.417c0,0.695,0.315,0.994,0.861,0.994c0.45,0,0.879-0.283,1.43-0.94L137.333,31
		c-0.564,1.013-1.692,1.709-2.729,1.709c-1.275,0-2.125-0.717-2.125-2.33v-4.516h-0.996v-0.489c1.13-0.47,2.408-1.842,2.746-2.894
		h0.551v2.35h2.461l-0.283,1.033h-2.178V30.417z"/>
	<path d="M145.758,30.322c-1.051,1.482-2.576,2.387-4.029,2.387c-2.044,0-3.438-1.581-3.438-3.854c0-2.484,1.676-4.235,4.021-4.235
		c1,0,1.791,0.321,2.375,0.904c1.107,1.109,0.583,2.163,1.24,2.504v0.542h-5.21c0.147,1.562,1.203,2.745,2.311,2.745
		c0.7,0,1.377-0.392,2.296-1.354L145.758,30.322z M143.333,27.838c-0.02-1.446-0.528-2.332-1.332-2.332
		c-0.775,0-1.472,0.997-1.334,2.332H143.333z"/>
	<path d="M151.5,32.503h-4.704v-0.604h0.208c0.772,0,1.052-0.338,1.052-1.315v-3.608c0-0.491-0.111-0.624-0.64-0.811l-0.62-0.227
		v-0.45l3.216-1.071h0.338v6.3c0,0.771,0.32,1.183,1.15,1.183V32.503z M150.615,21.426c0,0.753-0.718,1.279-1.486,1.279
		c-0.867,0-1.506-0.547-1.506-1.279c0-0.677,0.714-1.279,1.506-1.279C149.994,20.146,150.615,20.712,150.615,21.426"/>
	<path d="M155.747,30.417c0,0.695,0.318,0.994,0.864,0.994c0.45,0,0.886-0.283,1.431-0.94L158.303,31
		c-0.564,1.013-1.692,1.709-2.726,1.709c-1.278,0-2.126-0.717-2.126-2.33v-4.516h-0.995v-0.489c1.126-0.47,2.404-1.842,2.745-2.894
		h0.545v2.35h2.461l-0.283,1.033h-2.178V30.417z"/>
	<path d="M172.497,20.756h4.875v0.732h-0.134c-1.503,0-1.729,0.658-1.729,1.562v4.681c0,4.195-3.045,4.982-5.282,4.982
		c-3.387,0-5.531-1.464-5.531-4.342v-5.604c0-0.943-0.261-1.28-1.315-1.28h-0.32v-0.732h5.886v0.732h-0.315
		c-0.795,0-1.336,0.357-1.336,1.28v5.604c0,2.294,1.688,3.084,3.398,3.084c2.466,0,3.691-1.39,3.691-3.46v-4.569
		c0-1.335-0.378-1.938-1.545-1.938h-0.342V20.756z"/>
	<path d="M180.359,30.366c0,0.696,0.316,0.993,0.863,0.993c0.45,0,0.883-0.28,1.429-0.938l0.266,0.526
		c-0.565,1.015-1.694,1.711-2.729,1.711c-1.275,0-2.128-0.717-2.128-2.332v-4.511h-0.994v-0.493
		c1.128-0.468,2.411-1.842,2.747-2.893h0.547v2.35h2.461l-0.28,1.036h-2.181V30.366z"/>
	<path d="M189.009,32.451h-5.229v-0.601h0.131c0.773,0,1.053-0.338,1.053-1.314V27.47c0-0.846-0.11-1.036-0.675-1.261L183.78,26
		v-0.468l3.084-1.166h0.397v2.104h0.036c0.694-1.354,0.996-1.898,1.638-1.898c0.129,0,0.281,0.02,0.374,0.056l1.484,0.547
		c-0.224,0.791-0.524,1.463-0.896,1.992c-0.588-0.227-1.282-0.47-1.53-0.47c-0.375,0-0.691,0.265-1.105,0.846v3.048
		c0,0.904,0.281,1.26,1.261,1.26h0.487V32.451z"/>
	<path d="M198.975,30.271c-1.05,1.482-2.574,2.388-4.024,2.388c-2.049,0-3.439-1.579-3.439-3.854c0-2.483,1.677-4.231,4.021-4.231
		c1,0,1.79,0.321,2.372,0.904c1.11,1.108,0.584,2.162,1.243,2.5v0.545h-5.21c0.149,1.562,1.202,2.745,2.312,2.745
		c0.694,0,1.371-0.393,2.296-1.355L198.975,30.271z M196.552,27.79c-0.02-1.449-0.526-2.332-1.339-2.332
		c-0.769,0-1.463,0.993-1.334,2.332H196.552z"/>
	<path d="M208.059,30.646c-0.864,1.316-2.184,2.012-3.836,2.012c-2.294,0-3.95-1.562-3.95-3.725c0-2.463,2.128-4.361,4.869-4.361
		c1.618,0,2.843,0.677,2.843,1.599c0,0.562-0.375,0.941-0.962,0.941c-1.313,0-1.594-1.675-2.686-1.675
		c-0.94,0-1.584,1.146-1.584,2.838c0,2.032,0.963,3.404,2.354,3.404c0.848,0,1.636-0.431,2.406-1.335L208.059,30.646z"/>
	<path d="M212.138,30.554c0,1.184,0.321,1.297,0.979,1.297h0.188v0.601h-4.761v-0.601h0.27c0.96,0,1.032-0.377,1.032-1.374v-8.218
		c0-0.543-0.096-0.676-0.603-0.846l-0.545-0.187v-0.434l2.991-0.921h0.449V26c1.056-0.732,2.405-1.427,3.385-1.427
		c1.378,0,2.053,1.107,2.053,3.327v2.485c0,1.11,0.129,1.466,0.846,1.466h0.186v0.601h-4.438v-0.601h0.152
		c0.789,0,0.96-0.304,0.96-1.374v-2.839c0-1.014-0.471-1.654-1.222-1.654c-0.512,0-1.262,0.28-1.921,0.713V30.554z"/>
	<path d="M222.71,30.366c0,0.696,0.318,0.993,0.862,0.993c0.452,0,0.882-0.28,1.432-0.938l0.264,0.526
		c-0.566,1.015-1.695,1.711-2.729,1.711c-1.277,0-2.125-0.717-2.125-2.332v-4.511h-0.994v-0.493
		c1.129-0.468,2.406-1.842,2.742-2.893h0.549v2.35h2.459l-0.276,1.036h-2.183V30.366z"/>
	<polygon fill="#FFD400" points="22.965,0.983 23.477,0.328 24.342,0.223 24.997,0.736 29.317,0.736 29.971,0.223 30.835,0.328 
		31.348,0.982 35.545,2.017 36.302,1.674 37.116,1.984 37.458,2.743 41.279,4.747 42.096,4.598 42.812,5.091 42.962,5.911 
		46.198,8.775 47.026,8.827 47.603,9.478 47.553,10.308 50.005,13.859 50.798,14.107 51.206,14.878 50.958,15.671 52.49,19.712 
		53.203,20.142 53.41,20.987 52.981,21.698 53.5,25.987 54.087,26.575 54.087,27.448 53.5,28.034 52.981,32.319 53.413,33.03 
		53.206,33.878 52.492,34.306 50.96,38.347 51.208,39.14 50.8,39.913 50.008,40.159 47.553,43.714 47.603,44.546 47.026,45.196 
		46.198,45.245 42.966,48.109 42.816,48.927 42.102,49.423 41.283,49.271 37.457,51.278 37.116,52.038 36.302,52.347 35.544,52.005 
		31.354,53.04 30.84,53.694 29.976,53.798 29.322,53.284 25,53.284 24.346,53.798 23.482,53.694 22.969,53.04 18.773,52.005 
		18.016,52.347 17.202,52.038 16.86,51.278 13.039,49.275 12.221,49.425 11.504,48.929 11.355,48.11 8.119,45.245 7.291,45.196 
		6.712,44.546 6.761,43.714 4.311,40.165 3.516,39.917 3.111,39.146 3.358,38.351 1.826,34.31 1.115,33.882 0.906,33.034 
		1.336,32.325 0.815,28.034 0.228,27.448 0.228,26.575 0.815,25.987 1.335,21.704 0.904,20.991 1.113,20.146 1.824,19.716 
		3.357,15.675 3.109,14.882 3.514,14.11 4.307,13.862 6.762,10.308 6.712,9.478 7.291,8.827 8.119,8.775 11.351,5.913 11.5,5.095 
		12.217,4.6 13.034,4.751 16.86,2.743 17.202,1.984 18.016,1.674 18.773,2.017 	"/>
</g>
<g>
	<defs>
		<polygon id="SVGID_1_" points="29.317,0.736 24.996,0.736 24.343,0.222 23.477,0.328 22.966,0.983 18.774,2.017 18.017,1.674 
			17.202,1.984 16.861,2.742 13.034,4.751 12.217,4.6 11.5,5.095 11.35,5.913 8.119,8.774 7.29,8.827 6.713,9.477 6.763,10.308 
			4.308,13.862 3.514,14.11 3.11,14.882 3.357,15.674 1.825,19.715 1.114,20.146 0.905,20.991 1.335,21.704 0.815,25.987 
			0.228,26.575 0.228,27.448 0.815,28.034 1.336,32.325 0.907,33.034 1.116,33.881 1.826,34.311 3.359,38.352 3.112,39.146 
			3.517,39.917 4.311,40.165 6.762,43.714 6.713,44.545 7.29,45.196 8.119,45.245 11.355,48.11 11.504,48.929 12.222,49.424 
			13.039,49.274 16.86,51.278 17.202,52.038 18.017,52.347 18.774,52.005 22.97,53.04 23.482,53.694 24.347,53.798 25.001,53.284 
			29.322,53.284 29.976,53.798 30.841,53.694 31.353,53.04 35.544,52.005 36.303,52.347 37.116,52.038 37.457,51.278 41.283,49.271 
			42.102,49.423 42.817,48.927 42.967,48.109 46.198,45.245 47.026,45.196 47.602,44.545 47.554,43.714 50.009,40.159 
			50.801,39.913 51.207,39.139 50.96,38.346 52.492,34.305 53.205,33.878 53.413,33.03 52.982,32.319 53.5,28.034 54.088,27.448 
			54.088,26.575 53.5,25.987 52.982,21.698 53.41,20.987 53.203,20.141 52.49,19.712 50.958,15.671 51.205,14.878 50.799,14.107 
			50.005,13.858 47.554,10.308 47.602,9.477 47.026,8.827 46.198,8.774 42.963,5.911 42.813,5.09 42.097,4.598 41.28,4.747 
			37.457,2.742 37.116,1.984 36.303,1.674 35.545,2.017 31.349,0.982 30.835,0.328 29.972,0.222 		"/>
	</defs>
	<clipPath id="SVGID_2_">
		<use xlink:href="#SVGID_1_"  overflow="visible"/>
	</clipPath>
	<path clip-path="url(#SVGID_2_)" fill="#FFFFFF" d="M31.805,3.529c0.211,0.127,0.561,0.311,0.827,0.374
		c0.303,0.074,0.637,0.093,0.724-0.26c0.084-0.346-0.347-0.485-0.753-0.723c-0.407-0.238-0.795-0.574-0.619-1.299
		c0.199-0.806,1.102-0.982,1.811-0.808c0.417,0.103,0.783,0.294,1.132,0.536l-0.445,0.624c-0.227-0.152-0.553-0.301-0.753-0.35
		c-0.466-0.114-0.681,0.011-0.738,0.25c-0.037,0.152,0.039,0.308,0.45,0.506c0.906,0.452,1.072,0.899,0.944,1.426
		c-0.227,0.924-1.056,1.096-1.889,0.891c-0.39-0.094-0.775-0.282-1.114-0.497L31.805,3.529z"/>
	<path clip-path="url(#SVGID_2_)" fill="none" stroke="#FFFFFF" stroke-width="0.4" d="M31.805,3.529
		c0.211,0.127,0.561,0.311,0.827,0.374c0.303,0.074,0.637,0.093,0.724-0.26c0.084-0.346-0.347-0.485-0.753-0.723
		c-0.407-0.238-0.795-0.574-0.619-1.299c0.199-0.806,1.102-0.982,1.811-0.808c0.417,0.103,0.783,0.294,1.132,0.536l-0.445,0.624
		c-0.227-0.152-0.553-0.301-0.753-0.35c-0.466-0.114-0.681,0.011-0.738,0.25c-0.037,0.152,0.039,0.308,0.45,0.506
		c0.906,0.452,1.072,0.899,0.944,1.426c-0.227,0.924-1.056,1.096-1.889,0.891c-0.39-0.094-0.775-0.282-1.114-0.497L31.805,3.529z"/>
	<path clip-path="url(#SVGID_2_)" fill="#FFFFFF" d="M39.729,3.067c1.16,0.608,1.413,1.78,0.894,2.772
		c-0.522,0.994-1.63,1.449-2.79,0.842c-1.165-0.611-1.419-1.783-0.898-2.777C37.457,2.912,38.565,2.456,39.729,3.067 M38.202,5.966
		c0.512,0.269,1.11,0.141,1.503-0.607c0.393-0.753,0.16-1.316-0.353-1.585c-0.508-0.267-1.103-0.14-1.497,0.611
		S37.693,5.7,38.202,5.966"/>
	<path clip-path="url(#SVGID_2_)" fill="none" stroke="#FFFFFF" stroke-width="0.4" d="M39.729,3.067
		c1.16,0.608,1.413,1.78,0.894,2.772c-0.522,0.994-1.63,1.449-2.79,0.842c-1.165-0.611-1.419-1.783-0.898-2.777
		C37.457,2.912,38.565,2.456,39.729,3.067z M38.202,5.966c0.512,0.269,1.11,0.141,1.503-0.607c0.393-0.753,0.16-1.316-0.353-1.585
		c-0.508-0.267-1.103-0.14-1.497,0.611S37.693,5.7,38.202,5.966z"/>
	<path clip-path="url(#SVGID_2_)" fill="#FFFFFF" d="M44.192,5.952l-2.506,3.072c0.658,0.533,1.285,1.098,1.881,1.699l0.606-0.601
		c-0.391-0.395-0.798-0.775-1.217-1.145l2.04-2.345"/>
	<path clip-path="url(#SVGID_2_)" fill="none" stroke="#FFFFFF" stroke-width="0.4" d="M44.192,5.952l-2.506,3.072
		c0.658,0.533,1.285,1.098,1.881,1.699l0.606-0.601c-0.391-0.395-0.798-0.775-1.217-1.145l2.04-2.345"/>
	<path clip-path="url(#SVGID_2_)" fill="#FFFFFF" d="M52.67,17.909l-3.75,1.332c-0.1-0.281-0.214-0.578-0.329-0.859l3.702-1.479"/>
	<path clip-path="url(#SVGID_2_)" fill="none" stroke="#FFFFFF" stroke-width="0.4" d="M52.67,17.909l-3.75,1.332
		c-0.1-0.281-0.214-0.578-0.329-0.859l3.702-1.479"/>
	<path clip-path="url(#SVGID_2_)" fill="#FFFFFF" d="M54.151,24.78l-3.066-0.619l-0.002-0.01l2.838-1.293l-0.18-1.041l-3.707,1.934
		c0.053,0.361,0.093,0.718,0.128,1.08l4.05,0.953"/>
	<path clip-path="url(#SVGID_2_)" fill="none" stroke="#FFFFFF" stroke-width="0.4" d="M54.151,24.78l-3.066-0.619l-0.002-0.01
		l2.838-1.293l-0.18-1.041l-3.707,1.934c0.053,0.361,0.093,0.718,0.128,1.08l4.05,0.953"/>
	<path clip-path="url(#SVGID_2_)" fill="#FFFFFF" d="M51.028,28.802c-0.102,0.225-0.239,0.594-0.271,0.865
		c-0.038,0.311-0.018,0.645,0.343,0.688c0.355,0.043,0.442-0.402,0.627-0.836c0.189-0.43,0.474-0.857,1.218-0.768
		c0.823,0.098,1.106,0.975,1.019,1.699c-0.051,0.43-0.2,0.812-0.395,1.189l-0.676-0.367c0.125-0.242,0.235-0.584,0.258-0.791
		c0.057-0.475-0.095-0.674-0.336-0.701c-0.155-0.02-0.302,0.074-0.45,0.51c-0.34,0.95-0.764,1.17-1.3,1.105
		c-0.945-0.114-1.216-0.916-1.114-1.768c0.048-0.398,0.185-0.803,0.359-1.162L51.028,28.802z"/>
	<path clip-path="url(#SVGID_2_)" fill="none" stroke="#FFFFFF" stroke-width="0.4" d="M51.028,28.802
		c-0.102,0.225-0.239,0.594-0.271,0.865c-0.038,0.311-0.018,0.645,0.343,0.688c0.355,0.043,0.442-0.402,0.627-0.836
		c0.189-0.43,0.474-0.857,1.218-0.768c0.823,0.098,1.106,0.975,1.019,1.699c-0.051,0.43-0.2,0.812-0.395,1.189l-0.676-0.367
		c0.125-0.242,0.235-0.584,0.258-0.791c0.057-0.475-0.095-0.674-0.336-0.701c-0.155-0.02-0.302,0.074-0.45,0.51
		c-0.34,0.95-0.764,1.17-1.3,1.105c-0.945-0.114-1.216-0.916-1.114-1.768c0.048-0.398,0.185-0.803,0.359-1.162L51.028,28.802z"/>
	<path clip-path="url(#SVGID_2_)" fill="#FFFFFF" d="M51.89,38.065l-0.917-0.408c0.134-0.297,0.264-0.604,0.385-0.91l-2.761-1.115
		c0.113-0.281,0.224-0.58,0.323-0.861l2.808,1.006c0.107-0.305,0.213-0.611,0.309-0.918l0.951,0.299"/>
	<path clip-path="url(#SVGID_2_)" fill="none" stroke="#FFFFFF" stroke-width="0.4" d="M51.89,38.065l-0.917-0.408
		c0.134-0.297,0.264-0.604,0.385-0.91l-2.761-1.115c0.113-0.281,0.224-0.58,0.323-0.861l2.808,1.006
		c0.107-0.305,0.213-0.611,0.309-0.918l0.951,0.299"/>
	<path clip-path="url(#SVGID_2_)" fill="#FFFFFF" d="M49.131,42.843l-3.224-2.332c0.175-0.244,0.356-0.51,0.521-0.76l3.318,2.207"/>
	<path clip-path="url(#SVGID_2_)" fill="none" stroke="#FFFFFF" stroke-width="0.4" d="M49.131,42.843l-3.224-2.332
		c0.175-0.244,0.356-0.51,0.521-0.76l3.318,2.207"/>
	<path clip-path="url(#SVGID_2_)" fill="#FFFFFF" d="M43.913,48.29l-0.621-0.781c0.258-0.205,0.514-0.412,0.765-0.627l-1.926-2.273
		c0.231-0.195,0.467-0.408,0.688-0.611l2.015,2.195c0.24-0.219,0.474-0.441,0.7-0.67l0.703,0.711"/>
	<path clip-path="url(#SVGID_2_)" fill="none" stroke="#FFFFFF" stroke-width="0.4" d="M43.913,48.29l-0.621-0.781
		c0.258-0.205,0.514-0.412,0.765-0.627l-1.926-2.273c0.231-0.195,0.467-0.408,0.688-0.611l2.015,2.195
		c0.24-0.219,0.474-0.441,0.7-0.67l0.703,0.711"/>
	<path clip-path="url(#SVGID_2_)" fill="#FFFFFF" d="M39.258,51.249l-1.777-3.57c0.27-0.137,0.55-0.284,0.814-0.432l1.916,3.498"/>
	<path clip-path="url(#SVGID_2_)" fill="none" stroke="#FFFFFF" stroke-width="0.4" d="M39.258,51.249l-1.777-3.57
		c0.27-0.137,0.55-0.284,0.814-0.432l1.916,3.498"/>
	<path clip-path="url(#SVGID_2_)" fill="#FFFFFF" d="M31.681,53.72l-0.687-3.918c0.779-0.131,1.553-0.303,2.315-0.516l0.294,1.008
		c0.415-0.115,0.826-0.244,1.235-0.383l0.202-0.777l0.599,1.346l-0.784,2.504L31.681,53.72z"/>
	<path clip-path="url(#SVGID_2_)" fill="none" stroke="#FFFFFF" stroke-width="0.4" d="M31.681,53.72l-0.687-3.918
		c0.779-0.131,1.553-0.303,2.315-0.516l0.294,1.008c0.415-0.115,0.826-0.244,1.235-0.383l0.202-0.777l0.599,1.346l-0.784,2.504
		L31.681,53.72z"/>
	<path clip-path="url(#SVGID_2_)" fill="#FFFFFF" d="M20.173,53.183l1.035-3.848c0.292,0.078,0.602,0.15,0.898,0.217l-0.884,3.891"
		/>
	<path clip-path="url(#SVGID_2_)" fill="none" stroke="#FFFFFF" stroke-width="0.4" d="M20.173,53.183l1.035-3.848
		c0.292,0.078,0.602,0.15,0.898,0.217l-0.884,3.891"/>
	<path clip-path="url(#SVGID_2_)" fill="#FFFFFF" d="M15.676,51.546l1.699-3.598c-0.766-0.359-1.512-0.758-2.235-1.197l-0.443,0.73
		c0.475,0.289,0.961,0.561,1.456,0.816l-1.435,2.779"/>
	<path clip-path="url(#SVGID_2_)" fill="none" stroke="#FFFFFF" stroke-width="0.4" d="M15.676,51.546l1.699-3.598
		c-0.766-0.359-1.512-0.758-2.235-1.197l-0.443,0.73c0.475,0.289,0.961,0.561,1.456,0.816l-1.435,2.779"/>
	<path clip-path="url(#SVGID_2_)" fill="#FFFFFF" d="M10.142,48.079l2.504-3.082c-0.657-0.531-1.286-1.098-1.883-1.699l-0.605,0.604
		c0.393,0.396,0.799,0.775,1.218,1.143L9.33,47.382"/>
	<path clip-path="url(#SVGID_2_)" fill="none" stroke="#FFFFFF" stroke-width="0.4" d="M10.142,48.079l2.504-3.082
		c-0.657-0.531-1.286-1.098-1.883-1.699l-0.605,0.604c0.393,0.396,0.799,0.775,1.218,1.143L9.33,47.382"/>
	<path clip-path="url(#SVGID_2_)" fill="#FFFFFF" d="M3.785,40.694l4.028-1.043c0.198,0.303,0.403,0.602,0.616,0.895l-2.379,3.43
		l-0.648-0.832l1.912-2.461l-0.006-0.008l-2.999,0.881"/>
	<path clip-path="url(#SVGID_2_)" fill="none" stroke="#FFFFFF" stroke-width="0.4" d="M3.785,40.694l4.028-1.043
		c0.198,0.303,0.403,0.602,0.616,0.895l-2.379,3.43l-0.648-0.832l1.912-2.461l-0.006-0.008l-2.999,0.881"/>
	<path clip-path="url(#SVGID_2_)" fill="#FFFFFF" d="M5.199,36.542c-0.015-0.246-0.064-0.641-0.162-0.896
		c-0.111-0.292-0.286-0.577-0.624-0.448c-0.334,0.127-0.203,0.562-0.168,1.031c0.037,0.471-0.019,0.98-0.717,1.246
		c-0.776,0.296-1.434-0.348-1.694-1.027c-0.154-0.402-0.203-0.812-0.203-1.238l0.768,0.014c0.003,0.271,0.065,0.623,0.139,0.818
		c0.17,0.447,0.396,0.553,0.625,0.463c0.146-0.055,0.231-0.205,0.16-0.658c-0.143-1.002,0.131-1.391,0.637-1.584
		c0.89-0.34,1.5,0.242,1.807,1.045c0.144,0.375,0.209,0.797,0.225,1.197L5.199,36.542z"/>
	<path clip-path="url(#SVGID_2_)" fill="none" stroke="#FFFFFF" stroke-width="0.4" d="M5.199,36.542
		c-0.015-0.246-0.064-0.641-0.162-0.896c-0.111-0.292-0.286-0.577-0.624-0.448c-0.334,0.127-0.203,0.562-0.168,1.031
		c0.037,0.471-0.019,0.98-0.717,1.246c-0.776,0.296-1.434-0.348-1.694-1.027c-0.154-0.402-0.203-0.812-0.203-1.238l0.768,0.014
		c0.003,0.271,0.065,0.623,0.139,0.818c0.17,0.447,0.396,0.553,0.625,0.463c0.146-0.055,0.231-0.205,0.16-0.658
		c-0.143-1.002,0.131-1.391,0.637-1.584c0.89-0.34,1.5,0.242,1.807,1.045c0.144,0.375,0.209,0.797,0.225,1.197L5.199,36.542z"/>
	<path clip-path="url(#SVGID_2_)" fill="#FFFFFF" d="M0.132,28.728l0.99-0.062c0.021,0.326,0.049,0.656,0.084,0.986l2.963-0.299
		c0.032,0.299,0.072,0.617,0.115,0.914l-2.953,0.416c0.045,0.318,0.096,0.639,0.153,0.955L0.5,31.815"/>
	<path clip-path="url(#SVGID_2_)" fill="none" stroke="#FFFFFF" stroke-width="0.4" d="M0.132,28.728l0.99-0.062
		c0.021,0.326,0.049,0.656,0.084,0.986l2.963-0.299c0.032,0.299,0.072,0.617,0.115,0.914l-2.953,0.416
		c0.045,0.318,0.096,0.639,0.153,0.955L0.5,31.815"/>
	<path clip-path="url(#SVGID_2_)" fill="#FFFFFF" d="M4.501,22.489c-0.086,0.354-0.14,0.687-0.189,1.033
		c0,0-0.613,0.166-0.897,0.272c-0.347,0.125-0.671,0.33-0.721,0.595c-0.01,0.053-0.013,0.116-0.016,0.149l1.493,0.146
		c-0.03,0.305-0.055,0.61-0.073,0.916l-3.83-0.218c0.033-0.545,0.083-1.084,0.148-1.625c0.093-0.768,0.47-1.399,1.167-1.348
		c0.572,0.039,0.935,0.426,0.947,1.039l0.018,0.004c0.15-0.176,0.284-0.244,0.525-0.381C3.452,22.852,4.501,22.489,4.501,22.489"/>
	<path clip-path="url(#SVGID_2_)" fill="none" stroke="#FFFFFF" stroke-width="0.4" d="M4.501,22.489
		c-0.086,0.354-0.14,0.687-0.189,1.033c0,0-0.613,0.166-0.897,0.272c-0.347,0.125-0.671,0.33-0.721,0.595
		c-0.01,0.053-0.013,0.116-0.016,0.149l1.493,0.146c-0.03,0.305-0.055,0.61-0.073,0.916l-3.83-0.218
		c0.033-0.545,0.083-1.084,0.148-1.625c0.093-0.768,0.47-1.399,1.167-1.348c0.572,0.039,0.935,0.426,0.947,1.039l0.018,0.004
		c0.15-0.176,0.284-0.244,0.525-0.381C3.452,22.852,4.501,22.489,4.501,22.489z"/>
	<path clip-path="url(#SVGID_2_)" fill="#FFFFFF" d="M2.037,16.868l4.303,0.117c-0.154,0.319-0.301,0.645-0.441,0.969l-0.905-0.041
		c-0.172,0.416-0.331,0.838-0.479,1.266l0.707,0.57c-0.108,0.324-0.208,0.652-0.301,0.984l-3.259-2.877"/>
	<path clip-path="url(#SVGID_2_)" fill="none" stroke="#FFFFFF" stroke-width="0.4" d="M2.037,16.868l4.303,0.117
		c-0.154,0.319-0.301,0.645-0.441,0.969l-0.905-0.041c-0.172,0.416-0.331,0.838-0.479,1.266l0.707,0.57
		c-0.108,0.324-0.208,0.652-0.301,0.984l-3.259-2.877"/>
	<path clip-path="url(#SVGID_2_)" fill="#FFFFFF" d="M8.669,7.22l2.908,0.973L9.898,6.134l0.791-0.623l2.372,3.191
		c-0.271,0.209-0.538,0.424-0.799,0.645L9.456,8.419l1.773,1.854c-0.202,0.193-0.4,0.386-0.595,0.588L7.787,8.085"/>
	<path clip-path="url(#SVGID_2_)" fill="none" stroke="#FFFFFF" stroke-width="0.4" d="M8.669,7.22l2.908,0.973L9.898,6.134
		l0.791-0.623l2.372,3.191c-0.271,0.209-0.538,0.424-0.799,0.645L9.456,8.419l1.773,1.854c-0.202,0.193-0.4,0.386-0.595,0.588
		L7.787,8.085"/>
	<path clip-path="url(#SVGID_2_)" fill="#FFFFFF" d="M14.588,3.066c1.16-0.61,2.267-0.153,2.79,0.839
		c0.52,0.994,0.268,2.164-0.893,2.775c-1.165,0.609-2.273,0.154-2.794-0.84C13.17,4.849,13.423,3.678,14.588,3.066 M16.108,5.972
		c0.513-0.271,0.746-0.834,0.352-1.584c-0.396-0.75-0.991-0.879-1.503-0.608c-0.509,0.266-0.743,0.83-0.348,1.581
		C15.002,6.108,15.598,6.238,16.108,5.972"/>
	<path clip-path="url(#SVGID_2_)" fill="none" stroke="#FFFFFF" stroke-width="0.4" d="M14.588,3.066
		c1.16-0.61,2.267-0.153,2.79,0.839c0.52,0.994,0.268,2.164-0.893,2.775c-1.165,0.609-2.273,0.154-2.794-0.84
		C13.17,4.849,13.423,3.678,14.588,3.066z M16.108,5.972c0.513-0.271,0.746-0.834,0.352-1.584c-0.396-0.75-0.991-0.879-1.503-0.608
		c-0.509,0.266-0.743,0.83-0.348,1.581C15.002,6.108,15.598,6.238,16.108,5.972z"/>
	<path clip-path="url(#SVGID_2_)" fill="#FFFFFF" d="M20.357,4.061c0.245,0.013,0.641,0.013,0.906-0.052
		c0.304-0.076,0.608-0.214,0.522-0.568c-0.087-0.345-0.534-0.269-1.004-0.289C20.31,3.13,19.81,3.013,19.629,2.288
		c-0.2-0.806,0.52-1.38,1.227-1.558c0.418-0.103,0.831-0.103,1.252-0.051l-0.104,0.76c-0.272-0.029-0.629-0.009-0.828,0.04
		c-0.467,0.116-0.598,0.327-0.539,0.564c0.037,0.152,0.179,0.254,0.635,0.24c1.011-0.022,1.365,0.297,1.496,0.823
		c0.23,0.925-0.423,1.461-1.256,1.669c-0.39,0.096-0.818,0.109-1.217,0.076L20.357,4.061z"/>
	<path clip-path="url(#SVGID_2_)" fill="none" stroke="#FFFFFF" stroke-width="0.4" d="M20.357,4.061
		c0.245,0.013,0.641,0.013,0.906-0.052c0.304-0.076,0.608-0.214,0.522-0.568c-0.087-0.345-0.534-0.269-1.004-0.289
		C20.31,3.13,19.81,3.013,19.629,2.288c-0.2-0.806,0.52-1.38,1.227-1.558c0.418-0.103,0.831-0.103,1.252-0.051l-0.104,0.76
		c-0.272-0.029-0.629-0.009-0.828,0.04c-0.467,0.116-0.598,0.327-0.539,0.564c0.037,0.152,0.179,0.254,0.635,0.24
		c1.011-0.022,1.365,0.297,1.496,0.823c0.23,0.925-0.423,1.461-1.256,1.669c-0.39,0.096-0.818,0.109-1.217,0.076L20.357,4.061z"/>
</g>
<g>
	<path fill="#FFFFFF" d="M27.159,3.004c0.538,0,0.974-0.435,0.974-0.973c0-0.537-0.436-0.972-0.974-0.972s-0.974,0.435-0.974,0.972
		C26.185,2.569,26.621,3.004,27.159,3.004"/>
	<circle fill="none" stroke="#FFFFFF" stroke-width="0.4" cx="27.159" cy="2.032" r="0.973"/>
	<path fill="#FFFFFF" d="M46.919,13.378c0.304,0.443,0.912,0.555,1.354,0.248c0.442-0.305,0.551-0.91,0.247-1.352
		c-0.304-0.443-0.91-0.552-1.352-0.248C46.725,12.331,46.614,12.937,46.919,13.378"/>
	<circle fill="none" stroke="#FFFFFF" stroke-width="0.4" cx="47.719" cy="12.826" r="0.972"/>
	<path fill="#FFFFFF" d="M27.159,51.017c0.538,0,0.974,0.436,0.974,0.975s-0.436,0.973-0.974,0.973s-0.974-0.434-0.974-0.973
		S26.621,51.017,27.159,51.017"/>
	<circle fill="none" stroke="#FFFFFF" stroke-width="0.4" cx="27.159" cy="51.99" r="0.974"/>
	<path fill="#FFFFFF" d="M7.397,13.378c0.305-0.441,0.195-1.047-0.247-1.352c-0.443-0.304-1.049-0.195-1.354,0.248
		c-0.305,0.442-0.194,1.047,0.249,1.352C6.486,13.933,7.092,13.821,7.397,13.378"/>
	<circle fill="none" stroke="#FFFFFF" stroke-width="0.4" cx="6.597" cy="12.826" r="0.972"/>
	<polyline fill="#FFD400" points="29.739,37.472 36.302,52.347 37.116,52.038 	"/>
	<polyline fill="#FFD400" points="16.67,23.04 1.219,20.093 1.113,20.145 0.904,20.991 	"/>
	<polyline fill="#FFD400" points="3.514,14.11 3.109,14.882 3.162,15.014 16.67,23.041 	"/>
</g>
<g>
	<defs>
		<path id="SVGID_3_" d="M0.224,27.011c0,14.875,12.06,26.934,26.936,26.934c14.874,0,26.932-12.059,26.932-26.934
			c0-14.874-12.058-26.935-26.932-26.935C12.284,0.076,0.224,12.137,0.224,27.011"/>
	</defs>
	<clipPath id="SVGID_4_">
		<use xlink:href="#SVGID_3_"  overflow="visible"/>
	</clipPath>
	<polyline clip-path="url(#SVGID_4_)" points="24.302,0 27.159,16.237 30.015,0 	"/>
	<polyline clip-path="url(#SVGID_4_)" points="30.853,0.101 29.739,16.55 36.398,1.468 	"/>
	<polyline clip-path="url(#SVGID_4_)" points="37.181,1.765 32.166,17.472 42.241,4.42 	"/>
	<polyline clip-path="url(#SVGID_4_)" points="42.932,4.899 34.304,18.946 47.207,8.688 	"/>
	<polyline clip-path="url(#SVGID_4_)" points="47.764,9.315 36.026,20.892 51.01,14.017 	"/>
	<polyline clip-path="url(#SVGID_4_)" points="51.399,14.763 37.232,23.188 53.425,20.103 	"/>
	<polyline clip-path="url(#SVGID_4_)" points="53.629,20.921 37.855,25.714 54.316,26.591 	"/>
	<polyline clip-path="url(#SVGID_4_)" points="54.316,27.431 37.854,28.31 53.629,33.103 	"/>
	<polyline clip-path="url(#SVGID_4_)" points="53.426,33.917 37.233,30.831 51.4,39.261 	"/>
	<polyline clip-path="url(#SVGID_4_)" points="51.01,40.007 36.026,33.132 47.764,44.706 	"/>
	<polyline clip-path="url(#SVGID_4_)" points="47.207,45.335 34.304,35.073 42.932,49.122 	"/>
	<polyline clip-path="url(#SVGID_4_)" points="42.24,49.603 32.165,36.552 37.18,52.257 	"/>
	<polyline clip-path="url(#SVGID_4_)" points="30.015,54.021 27.159,37.784 24.302,54.021 	"/>
	<polyline clip-path="url(#SVGID_4_)" points="23.466,53.921 24.58,37.472 17.92,52.552 	"/>
	<polyline clip-path="url(#SVGID_4_)" points="17.137,52.257 22.153,36.552 12.078,49.603 	"/>
	<polyline clip-path="url(#SVGID_4_)" points="11.384,49.122 20.014,35.073 7.108,45.335 	"/>
	<polyline clip-path="url(#SVGID_4_)" points="6.554,44.706 18.293,33.132 3.308,40.007 	"/>
	<polyline clip-path="url(#SVGID_4_)" points="2.917,39.261 17.084,30.831 0.89,33.917 	"/>
	<polyline clip-path="url(#SVGID_4_)" points="0.688,33.103 16.463,28.31 0,27.431 	"/>
	<polyline clip-path="url(#SVGID_4_)" points="0,26.591 16.463,25.714 0.688,20.921 	"/>
	<polyline clip-path="url(#SVGID_4_)" points="0.89,20.103 17.084,23.188 2.917,14.763 	"/>
	<polyline clip-path="url(#SVGID_4_)" points="3.308,14.017 18.292,20.892 6.554,9.315 	"/>
	<polyline clip-path="url(#SVGID_4_)" points="7.108,8.688 20.015,18.946 11.384,4.899 	"/>
	<polyline clip-path="url(#SVGID_4_)" points="12.078,4.42 22.153,17.471 17.137,1.766 	"/>
	<polyline clip-path="url(#SVGID_4_)" points="17.92,1.468 24.58,16.55 23.466,0.101 	"/>
	<path clip-path="url(#SVGID_4_)" fill="#FFFFFF" d="M44.192,5.952l-2.506,3.072c0.658,0.533,1.285,1.098,1.881,1.699l0.606-0.601
		c-0.391-0.395-0.798-0.775-1.217-1.145l2.04-2.345"/>
	<path clip-path="url(#SVGID_4_)" fill="#FFFFFF" d="M52.67,17.909l-3.75,1.332c-0.1-0.281-0.214-0.578-0.329-0.859l3.702-1.479"/>
	<path clip-path="url(#SVGID_4_)" fill="#FFFFFF" d="M54.151,24.78l-3.066-0.619l-0.002-0.01l2.838-1.293l-0.18-1.041l-3.707,1.934
		c0.053,0.361,0.093,0.718,0.128,1.08l4.05,0.953"/>
	<path clip-path="url(#SVGID_4_)" fill="#FFFFFF" d="M51.89,38.065l-0.917-0.408c0.134-0.297,0.264-0.604,0.385-0.91l-2.761-1.115
		c0.113-0.281,0.224-0.58,0.323-0.861l2.808,1.006c0.107-0.305,0.213-0.611,0.309-0.918l0.951,0.299"/>
	<path clip-path="url(#SVGID_4_)" fill="#FFFFFF" d="M49.131,42.843l-3.224-2.332c0.175-0.244,0.356-0.51,0.521-0.76l3.318,2.207"/>
	<path clip-path="url(#SVGID_4_)" fill="#FFFFFF" d="M43.913,48.29l-0.621-0.781c0.258-0.205,0.514-0.412,0.765-0.627l-1.926-2.273
		c0.231-0.195,0.467-0.408,0.688-0.611l2.015,2.195c0.24-0.219,0.474-0.441,0.7-0.67l0.703,0.711"/>
	<path clip-path="url(#SVGID_4_)" fill="#FFFFFF" d="M39.258,51.249l-1.777-3.57c0.27-0.137,0.55-0.284,0.814-0.432l1.916,3.498"/>
	<polyline clip-path="url(#SVGID_4_)" points="36.398,52.552 29.738,37.472 30.853,53.921 	"/>
</g>
<g>
	<defs>
		<path id="SVGID_5_" d="M30.837,53.695c1.894-0.258,3.725-0.714,5.472-1.345l-6.57-14.879L30.837,53.695z"/>
	</defs>
	<clipPath id="SVGID_6_">
		<use xlink:href="#SVGID_5_"  overflow="visible"/>
	</clipPath>
	<path clip-path="url(#SVGID_6_)" fill="#FFFFFF" d="M34.855,52.983l0.784-2.504l-0.599-1.346l-0.202,0.777
		c-0.409,0.139-0.82,0.268-1.235,0.383l-0.294-1.008c-0.762,0.213-1.536,0.385-2.315,0.516l0.141,0.842
		c0.478-0.08,0.954-0.174,1.486-0.299l0.167,0.664c-0.499,0.115-0.94,0.205-1.383,0.283l0.125,0.758
		c0.467-0.08,0.919-0.174,1.444-0.293l0.162,0.648c-0.579,0.135-1.097,0.238-1.616,0.326l0.161,0.988 M34.165,52.392l-0.369-1.352
		c0.266-0.074,0.563-0.162,0.84-0.248l-0.422,1.588L34.165,52.392z"/>
</g>
<g>
	<defs>
		<path id="SVGID_7_" d="M0.224,27.011c0,14.875,12.06,26.934,26.936,26.934c14.874,0,26.932-12.059,26.932-26.934
			c0-14.874-12.058-26.935-26.932-26.935C12.284,0.076,0.224,12.137,0.224,27.011"/>
	</defs>
	<clipPath id="SVGID_8_">
		<use xlink:href="#SVGID_7_"  overflow="visible"/>
	</clipPath>
	<path clip-path="url(#SVGID_8_)" fill="#FFFFFF" d="M20.173,53.183l1.035-3.848c0.292,0.078,0.602,0.15,0.898,0.217l-0.884,3.891"
		/>
	<path clip-path="url(#SVGID_8_)" fill="#FFFFFF" d="M15.676,51.546l1.699-3.598c-0.766-0.359-1.512-0.758-2.235-1.197l-0.443,0.73
		c0.475,0.289,0.961,0.561,1.456,0.816l-1.435,2.779"/>
	<path clip-path="url(#SVGID_8_)" fill="#FFFFFF" d="M10.142,48.079l2.504-3.082c-0.657-0.531-1.286-1.098-1.883-1.699l-0.605,0.604
		c0.393,0.396,0.799,0.775,1.218,1.143L9.33,47.382"/>
	<path clip-path="url(#SVGID_8_)" fill="#FFFFFF" d="M3.785,40.694l4.028-1.043c0.198,0.303,0.403,0.602,0.616,0.895l-2.379,3.43
		l-0.648-0.832l1.912-2.461l-0.006-0.008l-2.999,0.881"/>
	<path clip-path="url(#SVGID_8_)" fill="#FFFFFF" d="M0.132,28.728l0.99-0.062c0.021,0.326,0.049,0.656,0.084,0.986l2.963-0.299
		c0.032,0.299,0.072,0.617,0.115,0.914l-2.953,0.416c0.045,0.318,0.096,0.639,0.153,0.955L0.5,31.815"/>
	<path clip-path="url(#SVGID_8_)" fill="#FFFFFF" d="M0.244,23.743l0.172,0.014c0.094-0.768,0.471-1.399,1.168-1.348
		c0.572,0.039,0.934,0.426,0.947,1.039l0.018,0.004c0.15-0.176,0.283-0.244,0.525-0.381c0.378-0.219,1.428-0.582,1.428-0.582
		c-0.087,0.353-0.14,0.687-0.19,1.033c0,0-0.612,0.166-0.897,0.272c-0.346,0.125-0.67,0.33-0.72,0.595
		c-0.01,0.053-0.013,0.116-0.016,0.149l1.493,0.146c-0.03,0.305-0.055,0.61-0.073,0.916l-4.015-0.232 M1.081,23.946
		c-0.016,0.145-0.019,0.289-0.036,0.447L2,24.489c0.012-0.133,0.031-0.291,0.046-0.43c0.029-0.238-0.019-0.603-0.406-0.646
		C1.324,23.376,1.125,23.546,1.081,23.946"/>
	<path clip-path="url(#SVGID_8_)" fill="#FFFFFF" d="M2.038,16.868l4.302,0.118c-0.153,0.318-0.3,0.644-0.44,0.968l-0.906-0.041
		c-0.171,0.416-0.331,0.838-0.478,1.266l0.707,0.57c-0.108,0.325-0.208,0.653-0.301,0.985l-3.259-2.877 M2.65,17.72l1.248,0.959
		C4,18.396,4.106,18.118,4.217,17.837l-1.563-0.129L2.65,17.72z"/>
	<path clip-path="url(#SVGID_8_)" fill="#FFFFFF" d="M8.669,7.22l2.908,0.973L9.898,6.134l0.791-0.623l2.372,3.191
		c-0.271,0.209-0.538,0.424-0.799,0.645L9.456,8.419l1.773,1.854c-0.202,0.193-0.4,0.386-0.595,0.588L7.787,8.085"/>
	<path clip-path="url(#SVGID_8_)" fill="#FFFFFF" d="M31.805,3.529c0.211,0.127,0.561,0.311,0.827,0.374
		c0.303,0.074,0.637,0.093,0.724-0.26c0.084-0.346-0.347-0.485-0.753-0.723c-0.407-0.238-0.795-0.574-0.619-1.299
		c0.199-0.806,1.102-0.982,1.811-0.808c0.417,0.103,0.783,0.294,1.132,0.536l-0.445,0.624c-0.227-0.152-0.553-0.301-0.753-0.35
		c-0.466-0.114-0.681,0.011-0.738,0.25c-0.037,0.152,0.039,0.308,0.45,0.506c0.906,0.452,1.072,0.899,0.944,1.426
		c-0.227,0.924-1.056,1.096-1.889,0.891c-0.39-0.094-0.775-0.282-1.114-0.497L31.805,3.529z"/>
	<path clip-path="url(#SVGID_8_)" fill="#FFFFFF" d="M39.729,3.067c1.16,0.608,1.413,1.78,0.894,2.772
		c-0.522,0.994-1.63,1.449-2.79,0.842c-1.165-0.611-1.419-1.783-0.898-2.777C37.457,2.912,38.565,2.456,39.729,3.067 M38.202,5.966
		c0.512,0.269,1.11,0.141,1.503-0.607c0.393-0.753,0.16-1.316-0.353-1.585c-0.508-0.267-1.103-0.14-1.497,0.611
		S37.693,5.7,38.202,5.966"/>
	<path clip-path="url(#SVGID_8_)" fill="#FFFFFF" d="M51.028,28.802c-0.102,0.225-0.239,0.594-0.271,0.865
		c-0.038,0.311-0.018,0.645,0.343,0.688c0.355,0.043,0.442-0.402,0.627-0.836c0.189-0.43,0.474-0.857,1.218-0.768
		c0.823,0.098,1.106,0.975,1.019,1.699c-0.051,0.43-0.2,0.812-0.395,1.189l-0.676-0.367c0.125-0.242,0.235-0.584,0.258-0.791
		c0.057-0.475-0.095-0.674-0.336-0.701c-0.155-0.02-0.302,0.074-0.45,0.51c-0.34,0.95-0.764,1.17-1.3,1.105
		c-0.945-0.114-1.216-0.916-1.114-1.768c0.048-0.398,0.185-0.803,0.359-1.162L51.028,28.802z"/>
	<path clip-path="url(#SVGID_8_)" fill="#FFFFFF" d="M5.199,36.542c-0.015-0.246-0.064-0.641-0.162-0.896
		c-0.111-0.292-0.286-0.577-0.624-0.448c-0.334,0.127-0.203,0.562-0.168,1.031c0.037,0.471-0.019,0.98-0.717,1.246
		c-0.776,0.296-1.434-0.348-1.694-1.027c-0.154-0.402-0.203-0.812-0.203-1.238l0.768,0.014c0.003,0.271,0.065,0.623,0.139,0.818
		c0.17,0.447,0.396,0.553,0.625,0.463c0.146-0.055,0.231-0.205,0.16-0.658c-0.143-1.002,0.131-1.391,0.637-1.584
		c0.89-0.34,1.5,0.242,1.807,1.045c0.144,0.375,0.209,0.797,0.225,1.197L5.199,36.542z"/>
	<path clip-path="url(#SVGID_8_)" fill="#FFFFFF" d="M14.588,3.066c1.16-0.61,2.267-0.153,2.79,0.839
		c0.52,0.994,0.268,2.164-0.893,2.775c-1.165,0.609-2.273,0.154-2.794-0.84C13.17,4.849,13.423,3.678,14.588,3.066 M16.108,5.972
		c0.513-0.271,0.746-0.834,0.352-1.584c-0.396-0.75-0.991-0.879-1.503-0.608c-0.509,0.266-0.743,0.83-0.348,1.581
		C15.002,6.108,15.598,6.238,16.108,5.972"/>
	<path clip-path="url(#SVGID_8_)" fill="#FFFFFF" d="M20.357,4.061c0.245,0.013,0.641,0.013,0.906-0.052
		c0.304-0.076,0.608-0.214,0.522-0.568c-0.087-0.345-0.534-0.269-1.004-0.289C20.31,3.13,19.81,3.013,19.629,2.288
		c-0.2-0.806,0.52-1.38,1.227-1.558c0.418-0.103,0.831-0.103,1.252-0.051l-0.104,0.76c-0.272-0.029-0.629-0.009-0.828,0.04
		c-0.467,0.116-0.598,0.327-0.539,0.564c0.037,0.152,0.179,0.254,0.635,0.24c1.011-0.022,1.365,0.297,1.496,0.823
		c0.23,0.925-0.423,1.461-1.256,1.669c-0.39,0.096-0.818,0.109-1.217,0.076L20.357,4.061z"/>
	<path clip-path="url(#SVGID_8_)" fill="#FFFFFF" d="M27.159,3.004c0.538,0,0.974-0.435,0.974-0.973
		c0-0.537-0.436-0.972-0.974-0.972s-0.974,0.435-0.974,0.972C26.185,2.569,26.621,3.004,27.159,3.004"/>
	<path clip-path="url(#SVGID_8_)" fill="#FFFFFF" d="M46.919,13.378c0.304,0.443,0.912,0.555,1.354,0.248
		c0.442-0.305,0.551-0.91,0.247-1.352c-0.304-0.443-0.91-0.552-1.352-0.248C46.725,12.331,46.614,12.937,46.919,13.378"/>
	<path clip-path="url(#SVGID_8_)" fill="#FFFFFF" d="M27.159,51.017c0.538,0,0.974,0.436,0.974,0.975s-0.436,0.973-0.974,0.973
		s-0.974-0.434-0.974-0.973S26.621,51.017,27.159,51.017"/>
	<path clip-path="url(#SVGID_8_)" fill="#FFFFFF" d="M7.397,13.378c0.305-0.441,0.195-1.047-0.247-1.352
		c-0.443-0.304-1.049-0.195-1.354,0.248c-0.305,0.442-0.194,1.047,0.249,1.352C6.486,13.933,7.092,13.821,7.397,13.378"/>
</g>
<g>
	<path fill="#ED1A3B" d="M30.853,30.702c-0.304,0.311-0.725,0.502-1.192,0.502H28.68c-0.549,0-1.036,0.266-1.34,0.676h-0.362
		c-0.303-0.41-0.791-0.676-1.34-0.676h-0.979c-0.922,0-1.668-0.746-1.668-1.668v-6.695"/>
	<path fill="#FFFFFF" d="M22.99,22.841h8.338v6.695c0,0.457-0.181,0.865-0.476,1.166"/>
	<path d="M31.763,29.515c0,1.16-0.943,2.1-2.103,2.1h-0.981c-0.514,0-0.956,0.314-1.145,0.759h-0.752
		c-0.188-0.444-0.629-0.759-1.145-0.759h-0.979c-1.162,0-2.103-0.939-2.103-2.1v-7.109h9.208V29.515z M30.903,23.269h-7.488v6.246
		c0,0.682,0.556,1.24,1.243,1.24h0.979c0.598,0,1.126,0.25,1.508,0.648h0.026c0.384-0.398,0.912-0.648,1.508-0.648h0.981
		c0.687,0,1.243-0.559,1.243-1.24V23.269z"/>
</g>
</svg>
